<svg width="157" height="24" viewBox="0 0 157 24" fill="none" xmlns="http://www.w3.org/2000/svg">
<path d="M17.5984 0.0124023C19.3246 -0.0954861 21.0268 0.503894 22.3095 1.67868C23.4843 2.96135 24.0837 4.66359 23.9878 6.40179V17.5982C24.0957 19.3364 23.4843 21.0386 22.3215 22.3213C21.0388 23.4961 19.3246 24.0955 17.5984 23.9876H6.40184C4.66363 24.0955 2.96138 23.4961 1.67869 22.3213C0.503898 21.0386 -0.0954868 19.3364 0.0124024 17.5982V6.40179C-0.0954868 4.66359 0.503898 2.96135 1.67869 1.67868C2.96138 0.503894 4.66363 -0.0954861 6.40184 0.0124023H17.5984ZM17.2867 5.49073C16.5434 4.7475 15.3447 4.7475 14.6014 5.49073L13.7983 6.30589C13.6784 6.42577 13.6784 6.62956 13.7983 6.74943C13.7983 6.74943 13.8218 6.77282 13.8637 6.81445L14.1585 7.1077C14.3291 7.2774 14.542 7.48933 14.7558 7.70245L15.4807 8.42701C15.6319 8.57895 15.7323 8.68077 15.7403 8.69142C15.8721 8.83527 15.956 9.02708 15.956 9.24285C15.956 9.67441 15.6084 10.034 15.1648 10.034C14.9611 10.034 14.7693 9.95012 14.6374 9.81826L12.6354 7.82832C12.5395 7.73242 12.3717 7.73242 12.2758 7.82832L6.55768 13.5464C6.16209 13.942 5.93432 14.4694 5.92234 15.0329L5.85041 17.8739C5.85041 18.0298 5.89836 18.1736 6.00625 18.2815C6.11414 18.3894 6.25799 18.4493 6.41383 18.4493H9.23094C9.80635 18.4493 10.3578 18.2216 10.7774 17.814L18.8451 9.72236C19.5763 8.97913 19.5763 7.78037 18.8451 7.04912L17.2867 5.49073Z" fill="black"/>
<path d="M51.248 6.848L48.016 18H46.384L43.792 9.024L41.104 18L39.488 18.016L36.368 6.848H37.92L40.352 16.304L43.04 6.848H44.672L47.232 16.272L49.68 6.848H51.248ZM54.2974 10.656C54.5534 10.1547 54.916 9.76533 55.3854 9.488C55.8654 9.21067 56.4467 9.072 57.1294 9.072V10.576H56.7454C55.1134 10.576 54.2974 11.4613 54.2974 13.232V18H52.8414V9.232H54.2974V10.656ZM59.5621 7.808C59.2848 7.808 59.0501 7.712 58.8581 7.52C58.6661 7.328 58.5701 7.09333 58.5701 6.816C58.5701 6.53867 58.6661 6.304 58.8581 6.112C59.0501 5.92 59.2848 5.824 59.5621 5.824C59.8288 5.824 60.0528 5.92 60.2341 6.112C60.4261 6.304 60.5221 6.53867 60.5221 6.816C60.5221 7.09333 60.4261 7.328 60.2341 7.52C60.0528 7.712 59.8288 7.808 59.5621 7.808ZM60.2661 9.232V18H58.8101V9.232H60.2661ZM64.5236 10.432V15.6C64.5236 16.0267 64.6143 16.3307 64.7956 16.512C64.977 16.6827 65.2916 16.768 65.7396 16.768H66.8116V18H65.4996C64.689 18 64.081 17.8133 63.6756 17.44C63.2703 17.0667 63.0676 16.4533 63.0676 15.6V10.432H61.9316V9.232H63.0676V7.024H64.5236V9.232H66.8116V10.432H64.5236ZM76.5758 13.28C76.5758 13.5573 76.5598 13.8507 76.5278 14.16H69.5198C69.5731 15.024 69.8664 15.7013 70.3998 16.192C70.9438 16.672 71.5998 16.912 72.3678 16.912C72.9971 16.912 73.5198 16.768 73.9358 16.48C74.3624 16.1813 74.6611 15.7867 74.8318 15.296H76.3998C76.1651 16.1387 75.6958 16.8267 74.9918 17.36C74.2878 17.8827 73.4131 18.144 72.3678 18.144C71.5358 18.144 70.7891 17.9573 70.1278 17.584C69.4771 17.2107 68.9651 16.6827 68.5918 16C68.2184 15.3067 68.0318 14.5067 68.0318 13.6C68.0318 12.6933 68.2131 11.8987 68.5758 11.216C68.9384 10.5333 69.4451 10.0107 70.0958 9.648C70.7571 9.27467 71.5144 9.088 72.3678 9.088C73.1998 9.088 73.9358 9.26933 74.5758 9.632C75.2158 9.99467 75.7064 10.496 76.0478 11.136C76.3998 11.7653 76.5758 12.48 76.5758 13.28ZM75.0718 12.976C75.0718 12.4213 74.9491 11.9467 74.7038 11.552C74.4584 11.1467 74.1224 10.8427 73.6958 10.64C73.2798 10.4267 72.8158 10.32 72.3038 10.32C71.5678 10.32 70.9384 10.5547 70.4158 11.024C69.9038 11.4933 69.6104 12.144 69.5358 12.976H75.0718ZM82.2193 13.584C82.2193 12.688 82.4006 11.904 82.7633 11.232C83.1259 10.5493 83.6219 10.0213 84.2513 9.648C84.8913 9.27467 85.6006 9.088 86.3793 9.088C87.1473 9.088 87.8139 9.25333 88.3793 9.584C88.9446 9.91467 89.3659 10.3307 89.6433 10.832V9.232H91.1153V18H89.6433V16.368C89.3553 16.88 88.9233 17.3067 88.3473 17.648C87.7819 17.9787 87.1206 18.144 86.3633 18.144C85.5846 18.144 84.8806 17.952 84.2513 17.568C83.6219 17.184 83.1259 16.6453 82.7633 15.952C82.4006 15.2587 82.2193 14.4693 82.2193 13.584ZM89.6433 13.6C89.6433 12.9387 89.5099 12.3627 89.2433 11.872C88.9766 11.3813 88.6139 11.008 88.1553 10.752C87.7073 10.4853 87.2113 10.352 86.6673 10.352C86.1233 10.352 85.6273 10.48 85.1793 10.736C84.7313 10.992 84.3739 11.3653 84.1073 11.856C83.8406 12.3467 83.7073 12.9227 83.7073 13.584C83.7073 14.256 83.8406 14.8427 84.1073 15.344C84.3739 15.8347 84.7313 16.2133 85.1793 16.48C85.6273 16.736 86.1233 16.864 86.6673 16.864C87.2113 16.864 87.7073 16.736 88.1553 16.48C88.6139 16.2133 88.9766 15.8347 89.2433 15.344C89.5099 14.8427 89.6433 14.2613 89.6433 13.6ZM97.8478 9.072C98.9144 9.072 99.7784 9.39733 100.44 10.048C101.101 10.688 101.432 11.616 101.432 12.832V18H99.9918V13.04C99.9918 12.1653 99.7731 11.4987 99.3358 11.04C98.8984 10.5707 98.3011 10.336 97.5438 10.336C96.7758 10.336 96.1624 10.576 95.7038 11.056C95.2558 11.536 95.0318 12.2347 95.0318 13.152V18H93.5758V9.232H95.0318V10.48C95.3198 10.032 95.7091 9.68533 96.1998 9.44C96.7011 9.19467 97.2504 9.072 97.8478 9.072ZM107.532 13.584C107.532 12.688 107.713 11.904 108.076 11.232C108.438 10.5493 108.934 10.0213 109.564 9.648C110.204 9.27467 110.913 9.088 111.692 9.088C112.46 9.088 113.126 9.25333 113.692 9.584C114.257 9.91467 114.678 10.3307 114.956 10.832V9.232H116.428V18H114.956V16.368C114.668 16.88 114.236 17.3067 113.66 17.648C113.094 17.9787 112.433 18.144 111.676 18.144C110.897 18.144 110.193 17.952 109.564 17.568C108.934 17.184 108.438 16.6453 108.076 15.952C107.713 15.2587 107.532 14.4693 107.532 13.584ZM114.956 13.6C114.956 12.9387 114.822 12.3627 114.556 11.872C114.289 11.3813 113.926 11.008 113.468 10.752C113.02 10.4853 112.524 10.352 111.98 10.352C111.436 10.352 110.94 10.48 110.492 10.736C110.044 10.992 109.686 11.3653 109.42 11.856C109.153 12.3467 109.02 12.9227 109.02 13.584C109.02 14.256 109.153 14.8427 109.42 15.344C109.686 15.8347 110.044 16.2133 110.492 16.48C110.94 16.736 111.436 16.864 111.98 16.864C112.524 16.864 113.02 16.736 113.468 16.48C113.926 16.2133 114.289 15.8347 114.556 15.344C114.822 14.8427 114.956 14.2613 114.956 13.6ZM120.344 10.656C120.6 10.1547 120.963 9.76533 121.432 9.488C121.912 9.21067 122.494 9.072 123.176 9.072V10.576H122.792C121.16 10.576 120.344 11.4613 120.344 13.232V18H118.888V9.232H120.344V10.656ZM126.633 10.432V15.6C126.633 16.0267 126.724 16.3307 126.905 16.512C127.086 16.6827 127.401 16.768 127.849 16.768H128.921V18H127.609C126.798 18 126.19 17.8133 125.785 17.44C125.38 17.0667 125.177 16.4533 125.177 15.6V10.432H124.041V9.232H125.177V7.024H126.633V9.232H128.921V10.432H126.633ZM131.437 7.808C131.16 7.808 130.925 7.712 130.733 7.52C130.541 7.328 130.445 7.09333 130.445 6.816C130.445 6.53867 130.541 6.304 130.733 6.112C130.925 5.92 131.16 5.824 131.437 5.824C131.704 5.824 131.928 5.92 132.109 6.112C132.301 6.304 132.397 6.53867 132.397 6.816C132.397 7.09333 132.301 7.328 132.109 7.52C131.928 7.712 131.704 7.808 131.437 7.808ZM132.141 9.232V18H130.685V9.232H132.141ZM134.079 13.6C134.079 12.6933 134.26 11.904 134.623 11.232C134.985 10.5493 135.487 10.0213 136.127 9.648C136.777 9.27467 137.519 9.088 138.351 9.088C139.428 9.088 140.313 9.34933 141.007 9.872C141.711 10.3947 142.175 11.12 142.399 12.048H140.831C140.681 11.5147 140.388 11.0933 139.951 10.784C139.524 10.4747 138.991 10.32 138.351 10.32C137.519 10.32 136.847 10.608 136.335 11.184C135.823 11.7493 135.567 12.5547 135.567 13.6C135.567 14.656 135.823 15.472 136.335 16.048C136.847 16.624 137.519 16.912 138.351 16.912C138.991 16.912 139.524 16.7627 139.951 16.464C140.377 16.1653 140.671 15.7387 140.831 15.184H142.399C142.164 16.08 141.695 16.8 140.991 17.344C140.287 17.8773 139.407 18.144 138.351 18.144C137.519 18.144 136.777 17.9573 136.127 17.584C135.487 17.2107 134.985 16.6827 134.623 16C134.26 15.3173 134.079 14.5173 134.079 13.6ZM145.797 6.16V18H144.341V6.16H145.797ZM156.279 13.28C156.279 13.5573 156.263 13.8507 156.231 14.16H149.223C149.276 15.024 149.57 15.7013 150.103 16.192C150.647 16.672 151.303 16.912 152.071 16.912C152.7 16.912 153.223 16.768 153.639 16.48C154.066 16.1813 154.364 15.7867 154.535 15.296H156.103C155.868 16.1387 155.399 16.8267 154.695 17.36C153.991 17.8827 153.116 18.144 152.071 18.144C151.239 18.144 150.492 17.9573 149.831 17.584C149.18 17.2107 148.668 16.6827 148.295 16C147.922 15.3067 147.735 14.5067 147.735 13.6C147.735 12.6933 147.916 11.8987 148.279 11.216C148.642 10.5333 149.148 10.0107 149.799 9.648C150.46 9.27467 151.218 9.088 152.071 9.088C152.903 9.088 153.639 9.26933 154.279 9.632C154.919 9.99467 155.41 10.496 155.751 11.136C156.103 11.7653 156.279 12.48 156.279 13.28ZM154.775 12.976C154.775 12.4213 154.652 11.9467 154.407 11.552C154.162 11.1467 153.826 10.8427 153.399 10.64C152.983 10.4267 152.519 10.32 152.007 10.32C151.271 10.32 150.642 10.5547 150.119 11.024C149.607 11.4933 149.314 12.144 149.239 12.976H154.775Z" fill="black"/>
</svg>
