<svg width="30" height="27" viewBox="0 0 30 27" fill="none" xmlns="http://www.w3.org/2000/svg">
<path d="M4.31198 20.6471L4.44103 20.1119L4.05782 19.7167C2.12851 17.7266 1 15.2323 1 12.5357C1 6.32383 7.0915 1 15 1C22.9085 1 29 6.32383 29 12.5357C29 18.7476 22.9085 24.0714 15 24.0714C12.8773 24.0714 10.8725 23.6678 9.06786 22.9696L8.52412 22.7592L8.07318 23.1288C6.8652 24.1187 4.60466 25.6172 1.62153 25.9381C1.82776 25.6666 2.06075 25.3446 2.30243 24.9825C3.03986 23.8777 3.90642 22.3291 4.31198 20.6471ZM0.872341 26.855C0.868707 26.8592 0.864992 26.8633 0.861197 26.8674L0.861101 26.8673C0.864439 26.8637 0.868189 26.8596 0.872341 26.855Z" fill="white" stroke="black" stroke-width="2"/>
</svg>
