<svg width="80" height="24" viewBox="0 0 80 24" fill="none" xmlns="http://www.w3.org/2000/svg">
<path d="M16.8662 2.70629e-06C17.4323 -0.00119397 17.8799 0.394608 17.8812 0.922343L17.8825 1.82189C21.5554 2.08096 23.9816 4.33343 23.9855 7.7877L24 17.8986C24.0053 21.6647 21.3763 23.982 17.1624 23.988L6.86919 24C2.6816 24.0048 0.0197643 21.6324 0.0144985 17.8555L8.83653e-06 7.86326C-0.00524805 4.38621 2.33538 2.13973 6.00824 1.83629L6.00692 0.936736C6.0056 0.409 6.44003 0.0119994 7.01926 0.0119994C7.59849 0.0108 8.03292 0.406602 8.03423 0.934337L8.03555 1.77392L15.8552 1.76432L15.8539 0.924742C15.8526 0.397006 16.287 0.00120482 16.8662 2.70629e-06ZM17.4033 17.0303H17.3902C16.7846 17.0435 16.2988 17.5004 16.312 18.0522C16.3133 18.6039 16.8017 19.0585 17.4073 19.0704C18.0247 19.0692 18.5249 18.6123 18.5236 18.0486C18.5236 17.4848 18.022 17.0303 17.4033 17.0303ZM6.55588 17.0315C5.95031 17.0555 5.4764 17.5124 5.47771 18.0642C5.50536 18.6159 6.0056 19.0477 6.61117 19.0225C7.20488 18.9985 7.67748 18.5415 7.64983 17.9898C7.63667 17.4501 7.14827 17.0303 6.55588 17.0315ZM11.9796 17.0255C11.374 17.0507 10.9014 17.5064 10.9014 18.0582C10.9291 18.6099 11.4293 19.0405 12.0349 19.0165C12.6273 18.9913 13.1012 18.5355 13.0736 17.9826C13.0604 17.4441 12.572 17.0243 11.9796 17.0255ZM6.54929 12.7136C5.94373 12.7376 5.47113 13.1946 5.47244 13.7463C5.49878 14.298 6.00034 14.7298 6.6059 14.7046C7.1983 14.6806 7.6709 14.2237 7.64325 13.672C7.63009 13.1322 7.14301 12.7124 6.54929 12.7136ZM11.9743 12.6717C11.3688 12.6956 10.8949 13.1526 10.8962 13.7043C10.9225 14.2561 11.4241 14.6866 12.0296 14.6627C12.622 14.6375 13.0946 14.1817 13.0683 13.63C13.0538 13.0902 12.5667 12.6705 11.9743 12.6717ZM17.3981 12.6776C16.7925 12.6896 16.3186 13.1334 16.3199 13.6851V13.6983C16.3331 14.2501 16.8333 14.6687 17.4402 14.6567C18.0326 14.6435 18.5052 14.1865 18.492 13.6348C18.4644 13.107 17.9891 12.6765 17.3981 12.6776ZM15.8578 3.6114L8.03818 3.62099L8.0395 4.5913C8.0395 5.10824 7.60639 5.51604 7.02716 5.51604C6.44793 5.51724 6.01219 5.11064 6.01219 4.5937L6.01087 3.67017C3.44382 3.90165 2.02338 5.25937 2.02732 7.86087L2.02865 8.23388L21.9595 8.20989V7.7901C21.9029 5.21139 20.4654 3.85847 17.8851 3.65697L17.8865 4.58051C17.8865 5.09625 17.4402 5.50525 16.8741 5.50525C16.2949 5.50645 15.8591 5.09865 15.8591 4.58291L15.8578 3.6114Z" fill="black"/>
<path d="M38.688 8.032V11.76H42.752V12.96H38.688V16.8H43.232V18H37.232V6.832H43.232V8.032H38.688ZM48.6991 16.656L51.4191 9.232H52.9711L49.5311 18H47.8351L44.3951 9.232H45.9631L48.6991 16.656ZM62.4039 13.28C62.4039 13.5573 62.3879 13.8507 62.3559 14.16H55.3479C55.4012 15.024 55.6945 15.7013 56.2279 16.192C56.7719 16.672 57.4279 16.912 58.1959 16.912C58.8252 16.912 59.3479 16.768 59.7639 16.48C60.1905 16.1813 60.4892 15.7867 60.6599 15.296H62.2279C61.9932 16.1387 61.5239 16.8267 60.8199 17.36C60.1159 17.8827 59.2412 18.144 58.1959 18.144C57.3639 18.144 56.6172 17.9573 55.9559 17.584C55.3052 17.2107 54.7932 16.6827 54.4199 16C54.0465 15.3067 53.8599 14.5067 53.8599 13.6C53.8599 12.6933 54.0412 11.8987 54.4039 11.216C54.7665 10.5333 55.2732 10.0107 55.9239 9.648C56.5852 9.27467 57.3425 9.088 58.1959 9.088C59.0279 9.088 59.7639 9.26933 60.4039 9.632C61.0439 9.99467 61.5345 10.496 61.8759 11.136C62.2279 11.7653 62.4039 12.48 62.4039 13.28ZM60.8999 12.976C60.8999 12.4213 60.7772 11.9467 60.5319 11.552C60.2865 11.1467 59.9505 10.8427 59.5239 10.64C59.1079 10.4267 58.6439 10.32 58.1319 10.32C57.3959 10.32 56.7665 10.5547 56.2439 11.024C55.7319 11.4933 55.4385 12.144 55.3639 12.976H60.8999ZM68.5978 9.072C69.6644 9.072 70.5284 9.39733 71.1898 10.048C71.8511 10.688 72.1818 11.616 72.1818 12.832V18H70.7418V13.04C70.7418 12.1653 70.5231 11.4987 70.0858 11.04C69.6484 10.5707 69.0511 10.336 68.2938 10.336C67.5258 10.336 66.9124 10.576 66.4538 11.056C66.0058 11.536 65.7818 12.2347 65.7818 13.152V18H64.3258V9.232H65.7818V10.48C66.0698 10.032 66.4591 9.68533 66.9498 9.44C67.4511 9.19467 68.0004 9.072 68.5978 9.072ZM76.3361 10.432V15.6C76.3361 16.0267 76.4268 16.3307 76.6081 16.512C76.7895 16.6827 77.1041 16.768 77.5521 16.768H78.6241V18H77.3121C76.5015 18 75.8935 17.8133 75.4881 17.44C75.0828 17.0667 74.8801 16.4533 74.8801 15.6V10.432H73.7441V9.232H74.8801V7.024H76.3361V9.232H78.6241V10.432H76.3361Z" fill="black"/>
</svg>
