<svg width="184" height="28" viewBox="0 0 184 28" fill="none" xmlns="http://www.w3.org/2000/svg">
<path d="M20.5314 0.0144694C22.5453 -0.1114 24.5313 0.587876 26.0278 1.95846C27.3984 3.45491 28.0976 5.44086 27.9858 7.46876V20.5312C28.1116 22.5591 27.3984 24.5451 26.0418 26.0415C24.5453 27.4121 22.5453 28.1114 20.5314 27.9855H7.46882C5.4409 28.1114 3.45494 27.4121 1.95847 26.0415C0.587881 24.5451 -0.111401 22.5591 0.0144695 20.5312V7.46876C-0.111401 5.44086 0.587881 3.45491 1.95847 1.95846C3.45494 0.587876 5.4409 -0.1114 7.46882 0.0144694H20.5314ZM20.1678 6.40586C19.3007 5.53875 17.9021 5.53875 17.035 6.40586L16.098 7.35687C15.9581 7.49673 15.9581 7.73448 16.098 7.87434C16.098 7.87434 16.1254 7.90162 16.1743 7.95019L16.5183 8.29232C16.7173 8.4903 16.9657 8.73756 17.2151 8.98619L18.0608 9.83151C18.2372 10.0088 18.3543 10.1276 18.3636 10.14C18.5175 10.3078 18.6154 10.5316 18.6154 10.7833C18.6154 11.2868 18.2098 11.7064 17.6923 11.7064C17.4546 11.7064 17.2308 11.6085 17.077 11.4546L14.7414 9.13304C14.6295 9.02115 14.4337 9.02115 14.3218 9.13304L7.65063 15.8041C7.1891 16.2657 6.92338 16.881 6.90939 17.5383L6.82548 20.8529C6.82548 21.0347 6.88142 21.2025 7.00729 21.3284C7.13316 21.4543 7.30099 21.5242 7.4828 21.5242H10.7694C11.4407 21.5242 12.0841 21.2585 12.5736 20.783L21.9859 11.3427C22.839 10.4756 22.839 9.07709 21.9859 8.22398L20.1678 6.40586Z" fill="black"/>
<path d="M57.248 6.848L54.016 18H52.384L49.792 9.024L47.104 18L45.488 18.016L42.368 6.848H43.92L46.352 16.304L49.04 6.848H50.672L53.232 16.272L55.68 6.848H57.248ZM60.2974 10.656C60.5534 10.1547 60.916 9.76533 61.3854 9.488C61.8654 9.21067 62.4467 9.072 63.1294 9.072V10.576H62.7454C61.1134 10.576 60.2974 11.4613 60.2974 13.232V18H58.8414V9.232H60.2974V10.656ZM65.5621 7.808C65.2848 7.808 65.0501 7.712 64.8581 7.52C64.6661 7.328 64.5701 7.09333 64.5701 6.816C64.5701 6.53867 64.6661 6.304 64.8581 6.112C65.0501 5.92 65.2848 5.824 65.5621 5.824C65.8288 5.824 66.0528 5.92 66.2341 6.112C66.4261 6.304 66.5221 6.53867 66.5221 6.816C66.5221 7.09333 66.4261 7.328 66.2341 7.52C66.0528 7.712 65.8288 7.808 65.5621 7.808ZM66.2661 9.232V18H64.8101V9.232H66.2661ZM70.5236 10.432V15.6C70.5236 16.0267 70.6143 16.3307 70.7956 16.512C70.977 16.6827 71.2916 16.768 71.7396 16.768H72.8116V18H71.4996C70.689 18 70.081 17.8133 69.6756 17.44C69.2703 17.0667 69.0676 16.4533 69.0676 15.6V10.432H67.9316V9.232H69.0676V7.024H70.5236V9.232H72.8116V10.432H70.5236ZM82.5758 13.28C82.5758 13.5573 82.5598 13.8507 82.5278 14.16H75.5198C75.5731 15.024 75.8664 15.7013 76.3998 16.192C76.9438 16.672 77.5998 16.912 78.3678 16.912C78.9971 16.912 79.5198 16.768 79.9358 16.48C80.3624 16.1813 80.6611 15.7867 80.8318 15.296H82.3998C82.1651 16.1387 81.6958 16.8267 80.9918 17.36C80.2878 17.8827 79.4131 18.144 78.3678 18.144C77.5358 18.144 76.7891 17.9573 76.1278 17.584C75.4771 17.2107 74.9651 16.6827 74.5918 16C74.2184 15.3067 74.0318 14.5067 74.0318 13.6C74.0318 12.6933 74.2131 11.8987 74.5758 11.216C74.9384 10.5333 75.4451 10.0107 76.0958 9.648C76.7571 9.27467 77.5144 9.088 78.3678 9.088C79.1998 9.088 79.9358 9.26933 80.5758 9.632C81.2158 9.99467 81.7064 10.496 82.0478 11.136C82.3998 11.7653 82.5758 12.48 82.5758 13.28ZM81.0718 12.976C81.0718 12.4213 80.9491 11.9467 80.7038 11.552C80.4584 11.1467 80.1224 10.8427 79.6958 10.64C79.2798 10.4267 78.8158 10.32 78.3038 10.32C77.5678 10.32 76.9384 10.5547 76.4158 11.024C75.9038 11.4933 75.6104 12.144 75.5358 12.976H81.0718ZM88.2193 13.584C88.2193 12.688 88.4006 11.904 88.7633 11.232C89.1259 10.5493 89.6219 10.0213 90.2513 9.648C90.8913 9.27467 91.6006 9.088 92.3793 9.088C93.1473 9.088 93.8139 9.25333 94.3793 9.584C94.9446 9.91467 95.3659 10.3307 95.6433 10.832V9.232H97.1153V18H95.6433V16.368C95.3553 16.88 94.9233 17.3067 94.3473 17.648C93.7819 17.9787 93.1206 18.144 92.3633 18.144C91.5846 18.144 90.8806 17.952 90.2513 17.568C89.6219 17.184 89.1259 16.6453 88.7633 15.952C88.4006 15.2587 88.2193 14.4693 88.2193 13.584ZM95.6433 13.6C95.6433 12.9387 95.5099 12.3627 95.2433 11.872C94.9766 11.3813 94.6139 11.008 94.1553 10.752C93.7073 10.4853 93.2113 10.352 92.6673 10.352C92.1233 10.352 91.6273 10.48 91.1793 10.736C90.7313 10.992 90.3739 11.3653 90.1073 11.856C89.8406 12.3467 89.7073 12.9227 89.7073 13.584C89.7073 14.256 89.8406 14.8427 90.1073 15.344C90.3739 15.8347 90.7313 16.2133 91.1793 16.48C91.6273 16.736 92.1233 16.864 92.6673 16.864C93.2113 16.864 93.7073 16.736 94.1553 16.48C94.6139 16.2133 94.9766 15.8347 95.2433 15.344C95.5099 14.8427 95.6433 14.2613 95.6433 13.6ZM103.848 9.072C104.914 9.072 105.778 9.39733 106.44 10.048C107.101 10.688 107.432 11.616 107.432 12.832V18H105.992V13.04C105.992 12.1653 105.773 11.4987 105.336 11.04C104.898 10.5707 104.301 10.336 103.544 10.336C102.776 10.336 102.162 10.576 101.704 11.056C101.256 11.536 101.032 12.2347 101.032 13.152V18H99.5758V9.232H101.032V10.48C101.32 10.032 101.709 9.68533 102.2 9.44C102.701 9.19467 103.25 9.072 103.848 9.072ZM113.532 13.584C113.532 12.688 113.713 11.904 114.076 11.232C114.438 10.5493 114.934 10.0213 115.564 9.648C116.204 9.27467 116.913 9.088 117.692 9.088C118.46 9.088 119.126 9.25333 119.692 9.584C120.257 9.91467 120.678 10.3307 120.956 10.832V9.232H122.428V18H120.956V16.368C120.668 16.88 120.236 17.3067 119.66 17.648C119.094 17.9787 118.433 18.144 117.676 18.144C116.897 18.144 116.193 17.952 115.564 17.568C114.934 17.184 114.438 16.6453 114.076 15.952C113.713 15.2587 113.532 14.4693 113.532 13.584ZM120.956 13.6C120.956 12.9387 120.822 12.3627 120.556 11.872C120.289 11.3813 119.926 11.008 119.468 10.752C119.02 10.4853 118.524 10.352 117.98 10.352C117.436 10.352 116.94 10.48 116.492 10.736C116.044 10.992 115.686 11.3653 115.42 11.856C115.153 12.3467 115.02 12.9227 115.02 13.584C115.02 14.256 115.153 14.8427 115.42 15.344C115.686 15.8347 116.044 16.2133 116.492 16.48C116.94 16.736 117.436 16.864 117.98 16.864C118.524 16.864 119.02 16.736 119.468 16.48C119.926 16.2133 120.289 15.8347 120.556 15.344C120.822 14.8427 120.956 14.2613 120.956 13.6ZM126.344 10.656C126.6 10.1547 126.963 9.76533 127.432 9.488C127.912 9.21067 128.494 9.072 129.176 9.072V10.576H128.792C127.16 10.576 126.344 11.4613 126.344 13.232V18H124.888V9.232H126.344V10.656ZM132.633 10.432V15.6C132.633 16.0267 132.724 16.3307 132.905 16.512C133.086 16.6827 133.401 16.768 133.849 16.768H134.921V18H133.609C132.798 18 132.19 17.8133 131.785 17.44C131.38 17.0667 131.177 16.4533 131.177 15.6V10.432H130.041V9.232H131.177V7.024H132.633V9.232H134.921V10.432H132.633ZM137.437 7.808C137.16 7.808 136.925 7.712 136.733 7.52C136.541 7.328 136.445 7.09333 136.445 6.816C136.445 6.53867 136.541 6.304 136.733 6.112C136.925 5.92 137.16 5.824 137.437 5.824C137.704 5.824 137.928 5.92 138.109 6.112C138.301 6.304 138.397 6.53867 138.397 6.816C138.397 7.09333 138.301 7.328 138.109 7.52C137.928 7.712 137.704 7.808 137.437 7.808ZM138.141 9.232V18H136.685V9.232H138.141ZM140.079 13.6C140.079 12.6933 140.26 11.904 140.623 11.232C140.985 10.5493 141.487 10.0213 142.127 9.648C142.777 9.27467 143.519 9.088 144.351 9.088C145.428 9.088 146.313 9.34933 147.007 9.872C147.711 10.3947 148.175 11.12 148.399 12.048H146.831C146.681 11.5147 146.388 11.0933 145.951 10.784C145.524 10.4747 144.991 10.32 144.351 10.32C143.519 10.32 142.847 10.608 142.335 11.184C141.823 11.7493 141.567 12.5547 141.567 13.6C141.567 14.656 141.823 15.472 142.335 16.048C142.847 16.624 143.519 16.912 144.351 16.912C144.991 16.912 145.524 16.7627 145.951 16.464C146.377 16.1653 146.671 15.7387 146.831 15.184H148.399C148.164 16.08 147.695 16.8 146.991 17.344C146.287 17.8773 145.407 18.144 144.351 18.144C143.519 18.144 142.777 17.9573 142.127 17.584C141.487 17.2107 140.985 16.6827 140.623 16C140.26 15.3173 140.079 14.5173 140.079 13.6ZM151.797 6.16V18H150.341V6.16H151.797ZM162.279 13.28C162.279 13.5573 162.263 13.8507 162.231 14.16H155.223C155.276 15.024 155.57 15.7013 156.103 16.192C156.647 16.672 157.303 16.912 158.071 16.912C158.7 16.912 159.223 16.768 159.639 16.48C160.066 16.1813 160.364 15.7867 160.535 15.296H162.103C161.868 16.1387 161.399 16.8267 160.695 17.36C159.991 17.8827 159.116 18.144 158.071 18.144C157.239 18.144 156.492 17.9573 155.831 17.584C155.18 17.2107 154.668 16.6827 154.295 16C153.922 15.3067 153.735 14.5067 153.735 13.6C153.735 12.6933 153.916 11.8987 154.279 11.216C154.642 10.5333 155.148 10.0107 155.799 9.648C156.46 9.27467 157.218 9.088 158.071 9.088C158.903 9.088 159.639 9.26933 160.279 9.632C160.919 9.99467 161.41 10.496 161.751 11.136C162.103 11.7653 162.279 12.48 162.279 13.28ZM160.775 12.976C160.775 12.4213 160.652 11.9467 160.407 11.552C160.162 11.1467 159.826 10.8427 159.399 10.64C158.983 10.4267 158.519 10.32 158.007 10.32C157.271 10.32 156.642 10.5547 156.119 11.024C155.607 11.4933 155.314 12.144 155.239 12.976H160.775Z" fill="black"/>
</svg>
