<svg width="82" height="24" viewBox="0 0 82 24" fill="none" xmlns="http://www.w3.org/2000/svg">
<path d="M17.2006 0C21.2677 0 24 2.85374 24 7.10007V16.8999C24 21.1463 21.2677 24 17.1994 24H6.79942C2.73227 24 0 21.1463 0 16.8999V7.10007C0 2.85374 2.73227 0 6.79942 0H17.2006ZM18.5239 12.6601C17.2376 11.8576 16.2445 12.9845 15.9766 13.3449C15.7184 13.6929 15.4963 14.0768 15.2622 14.4607C14.6903 15.4081 14.035 16.5003 12.9007 17.1356C11.2524 18.0483 10.001 17.2074 9.10085 16.5957C8.76298 16.3678 8.43476 16.1523 8.10775 16.0087C7.30167 15.6607 6.57645 16.057 5.50008 17.4241C4.93535 18.1387 4.37545 18.8471 3.8083 19.5529C3.46922 19.9752 3.55007 20.6266 4.0074 20.909C4.73745 21.3585 5.62799 21.6 6.63437 21.6H16.7477C17.3184 21.6 17.8904 21.522 18.4358 21.3437C19.6642 20.9424 20.6392 20.0235 21.1485 18.8099C21.5781 17.7895 21.7868 16.5511 21.385 15.5207C21.251 15.1789 21.0507 14.8607 20.7696 14.5808C20.0323 13.8489 19.3433 13.1653 18.5239 12.6601ZM7.79863 4.8C6.14426 4.8 4.8 6.14608 4.8 7.8C4.8 9.45392 6.14426 10.8 7.79863 10.8C9.4518 10.8 10.7973 9.45392 10.7973 7.8C10.7973 6.14608 9.4518 4.8 7.79863 4.8Z" fill="black"/>
<path d="M44.688 10.112C44.688 11.04 44.368 11.8133 43.728 12.432C43.0987 13.04 42.1333 13.344 40.832 13.344H38.688V18H37.232V6.848H40.832C42.0907 6.848 43.0453 7.152 43.696 7.76C44.3573 8.368 44.688 9.152 44.688 10.112ZM40.832 12.144C41.6427 12.144 42.24 11.968 42.624 11.616C43.008 11.264 43.2 10.7627 43.2 10.112C43.2 8.736 42.4107 8.048 40.832 8.048H38.688V12.144H40.832ZM50.8496 9.072C51.511 9.072 52.1083 9.216 52.6416 9.504C53.175 9.78133 53.591 10.2027 53.8896 10.768C54.199 11.3333 54.3536 12.0213 54.3536 12.832V18H52.9136V13.04C52.9136 12.1653 52.695 11.4987 52.2576 11.04C51.8203 10.5707 51.223 10.336 50.4656 10.336C49.6976 10.336 49.0843 10.576 48.6256 11.056C48.1776 11.536 47.9536 12.2347 47.9536 13.152V18H46.4976V6.16H47.9536V10.48C48.2416 10.032 48.6363 9.68533 49.1376 9.44C49.6496 9.19467 50.2203 9.072 50.8496 9.072ZM60.556 18.144C59.7347 18.144 58.988 17.9573 58.316 17.584C57.6547 17.2107 57.132 16.6827 56.748 16C56.3747 15.3067 56.188 14.5067 56.188 13.6C56.188 12.704 56.38 11.9147 56.764 11.232C57.1587 10.5387 57.692 10.0107 58.364 9.648C59.036 9.27467 59.788 9.088 60.62 9.088C61.452 9.088 62.204 9.27467 62.876 9.648C63.548 10.0107 64.076 10.5333 64.46 11.216C64.8547 11.8987 65.052 12.6933 65.052 13.6C65.052 14.5067 64.8493 15.3067 64.444 16C64.0493 16.6827 63.5107 17.2107 62.828 17.584C62.1453 17.9573 61.388 18.144 60.556 18.144ZM60.556 16.864C61.0787 16.864 61.5693 16.7413 62.028 16.496C62.4867 16.2507 62.8547 15.8827 63.132 15.392C63.42 14.9013 63.564 14.304 63.564 13.6C63.564 12.896 63.4253 12.2987 63.148 11.808C62.8707 11.3173 62.508 10.9547 62.06 10.72C61.612 10.4747 61.1267 10.352 60.604 10.352C60.0707 10.352 59.58 10.4747 59.132 10.72C58.6947 10.9547 58.3427 11.3173 58.076 11.808C57.8093 12.2987 57.676 12.896 57.676 13.6C57.676 14.3147 57.804 14.9173 58.06 15.408C58.3267 15.8987 58.6787 16.2667 59.116 16.512C59.5533 16.7467 60.0333 16.864 60.556 16.864ZM68.7424 10.432V15.6C68.7424 16.0267 68.833 16.3307 69.0144 16.512C69.1957 16.6827 69.5104 16.768 69.9584 16.768H71.0304V18H69.7184C68.9077 18 68.2997 17.8133 67.8944 17.44C67.489 17.0667 67.2864 16.4533 67.2864 15.6V10.432H66.1504V9.232H67.2864V7.024H68.7424V9.232H71.0304V10.432H68.7424ZM76.6185 18.144C75.7972 18.144 75.0505 17.9573 74.3785 17.584C73.7172 17.2107 73.1945 16.6827 72.8105 16C72.4372 15.3067 72.2505 14.5067 72.2505 13.6C72.2505 12.704 72.4425 11.9147 72.8265 11.232C73.2212 10.5387 73.7545 10.0107 74.4265 9.648C75.0985 9.27467 75.8505 9.088 76.6825 9.088C77.5145 9.088 78.2665 9.27467 78.9385 9.648C79.6105 10.0107 80.1385 10.5333 80.5225 11.216C80.9172 11.8987 81.1145 12.6933 81.1145 13.6C81.1145 14.5067 80.9118 15.3067 80.5065 16C80.1118 16.6827 79.5732 17.2107 78.8905 17.584C78.2078 17.9573 77.4505 18.144 76.6185 18.144ZM76.6185 16.864C77.1412 16.864 77.6318 16.7413 78.0905 16.496C78.5492 16.2507 78.9172 15.8827 79.1945 15.392C79.4825 14.9013 79.6265 14.304 79.6265 13.6C79.6265 12.896 79.4878 12.2987 79.2105 11.808C78.9332 11.3173 78.5705 10.9547 78.1225 10.72C77.6745 10.4747 77.1892 10.352 76.6665 10.352C76.1332 10.352 75.6425 10.4747 75.1945 10.72C74.7572 10.9547 74.4052 11.3173 74.1385 11.808C73.8718 12.2987 73.7385 12.896 73.7385 13.6C73.7385 14.3147 73.8665 14.9173 74.1225 15.408C74.3892 15.8987 74.7412 16.2667 75.1785 16.512C75.6158 16.7467 76.0958 16.864 76.6185 16.864Z" fill="black"/>
</svg>
