<svg width="23" height="26" viewBox="0 0 23 26" fill="none" xmlns="http://www.w3.org/2000/svg">
<path d="M15.8126 4.06244C15.8125 3.1094 16.1089 2.18667 16.6499 1.45567C17.1909 0.724682 17.9421 0.231981 18.772 0.0637742C19.602 -0.104433 20.4578 0.0625658 21.1898 0.535552C21.9218 1.00854 22.4834 1.75739 22.7763 2.6511C23.0691 3.5448 23.0746 4.52644 22.7918 5.42428C22.5091 6.32212 21.956 7.07897 21.2293 7.56243C20.5027 8.04589 19.6488 8.22516 18.817 8.06889C17.9853 7.91261 17.2286 7.43074 16.6794 6.70757L7.02245 11.7769C7.24446 12.5721 7.24446 13.4253 7.02245 14.2205L16.6794 19.2898C17.2599 18.5267 18.0704 18.0344 18.9538 17.9082C19.8372 17.782 20.7305 18.031 21.4607 18.6069C22.1909 19.1828 22.706 20.0446 22.9061 21.0253C23.1062 22.0059 22.977 23.0356 22.5437 23.9148C22.1104 24.794 21.4038 25.4601 20.5607 25.784C19.7177 26.1078 18.7983 26.0664 17.9807 25.6677C17.1632 25.269 16.5057 24.5415 16.1356 23.6261C15.7656 22.7107 15.7094 21.6727 15.9779 20.7131L6.32096 15.6438C5.84291 16.2735 5.2057 16.7227 4.49505 16.9308C3.7844 17.1389 3.03441 17.096 2.34597 16.8079C1.65752 16.5198 1.06365 16.0003 0.644237 15.3193C0.224827 14.6383 0 13.8285 0 12.9987C0 12.1689 0.224827 11.3591 0.644237 10.678C1.06365 9.99703 1.65752 9.47754 2.34597 9.18944C3.03441 8.90135 3.7844 8.85848 4.49505 9.0666C5.2057 9.27472 5.84291 9.72385 6.32096 10.3536L15.9779 5.28427C15.868 4.88891 15.8123 4.47686 15.8126 4.06244Z" fill="black"/>
</svg>
