<svg width="35" height="35" viewBox="0 0 35 35" fill="none" xmlns="http://www.w3.org/2000/svg">
<path d="M17.5033 31.625C17.1817 31.6261 16.863 31.5641 16.5653 31.4425C16.2657 31.3201 15.9933 31.1399 15.7636 30.912L15.7603 30.9087L4.42902 19.5629L4.42581 19.5596L4.42581 19.5596C2.81917 17.9362 1.91797 15.7444 1.91797 13.4604C1.91797 11.1763 2.81917 8.98455 4.42581 7.36112L4.43046 7.35643L4.43048 7.35644C6.0504 5.74109 8.24474 4.83398 10.5324 4.83398C12.8201 4.83398 15.0144 5.74109 16.6344 7.35644L16.6354 7.35744L17.5033 8.22533L18.3711 7.35744L18.3721 7.35644C19.9921 5.74109 22.1864 4.83398 24.4741 4.83398C26.7618 4.83398 28.9561 5.74109 30.576 7.35644L30.5807 7.36111L30.5807 7.36112C32.1873 8.98455 33.0885 11.1763 33.0885 13.4604C33.0885 15.7444 32.1873 17.9362 30.5807 19.5596L30.5775 19.5629L19.2462 30.9087L19.2429 30.912C19.0132 31.1399 18.7408 31.3201 18.4412 31.4425C18.1435 31.5641 17.8248 31.6261 17.5033 31.625ZM17.5033 31.625C17.5013 31.625 17.4994 31.625 17.4975 31.6249L17.5033 30.625L17.509 31.6249C17.5071 31.625 17.5052 31.625 17.5033 31.625Z" stroke="black" stroke-width="2"/>
</svg>
