<svg width="82" height="24" viewBox="0 0 82 24" fill="none" xmlns="http://www.w3.org/2000/svg">
<path d="M12 0C18.6139 0 24 5.3835 24 12.0069C24 18.6165 18.6139 24 12 24C5.3861 24 0 18.6165 0 12.0069C0 5.3835 5.3861 0 12 0ZM10.6332 7.23589C10.3784 7.23589 10.1351 7.29378 9.90347 7.40955C9.6139 7.57164 9.38224 7.82634 9.25483 8.12735C9.17375 8.33575 9.04633 8.96093 9.04633 8.9725C8.91892 9.65557 8.84942 10.767 8.84942 11.9942C8.84942 13.1647 8.91892 14.2287 9.02317 14.9233C9.03475 14.9349 9.16216 15.7106 9.30116 15.9768C9.55598 16.4631 10.0541 16.7641 10.5869 16.7641H10.6332C10.9807 16.7525 11.7104 16.4515 11.7104 16.4399C12.9382 15.9305 15.3591 14.3444 16.332 13.2909L16.4015 13.2214C16.529 13.0941 16.6911 12.8973 16.7259 12.8509C16.9112 12.6078 17.0039 12.3068 17.0039 12.0069C17.0039 11.67 16.8996 11.3575 16.7027 11.1028C16.6564 11.0564 16.4826 10.8596 16.3205 10.6975C15.3707 9.67873 12.8919 8.01158 11.5946 7.50217C11.3977 7.42229 10.8996 7.24747 10.6332 7.23589Z" fill="black"/>
<path d="M46.448 6.848L42.24 18H40.56L36.352 6.848H37.904L41.408 16.464L44.912 6.848H46.448ZM48.7965 7.808C48.5192 7.808 48.2845 7.712 48.0925 7.52C47.9005 7.328 47.8045 7.09333 47.8045 6.816C47.8045 6.53867 47.9005 6.304 48.0925 6.112C48.2845 5.92 48.5192 5.824 48.7965 5.824C49.0632 5.824 49.2872 5.92 49.4685 6.112C49.6605 6.304 49.7565 6.53867 49.7565 6.816C49.7565 7.09333 49.6605 7.328 49.4685 7.52C49.2872 7.712 49.0632 7.808 48.7965 7.808ZM49.5005 9.232V18H48.0445V9.232H49.5005ZM51.438 13.584C51.438 12.688 51.6193 11.904 51.982 11.232C52.3447 10.5493 52.8407 10.0213 53.47 9.648C54.11 9.27467 54.8247 9.088 55.614 9.088C56.2967 9.088 56.9313 9.248 57.518 9.568C58.1047 9.87733 58.5527 10.288 58.862 10.8V6.16H60.334V18H58.862V16.352C58.574 16.8747 58.1473 17.3067 57.582 17.648C57.0167 17.9787 56.3553 18.144 55.598 18.144C54.8193 18.144 54.11 17.952 53.47 17.568C52.8407 17.184 52.3447 16.6453 51.982 15.952C51.6193 15.2587 51.438 14.4693 51.438 13.584ZM58.862 13.6C58.862 12.9387 58.7287 12.3627 58.462 11.872C58.1953 11.3813 57.8327 11.008 57.374 10.752C56.926 10.4853 56.43 10.352 55.886 10.352C55.342 10.352 54.846 10.48 54.398 10.736C53.95 10.992 53.5927 11.3653 53.326 11.856C53.0593 12.3467 52.926 12.9227 52.926 13.584C52.926 14.256 53.0593 14.8427 53.326 15.344C53.5927 15.8347 53.95 16.2133 54.398 16.48C54.846 16.736 55.342 16.864 55.886 16.864C56.43 16.864 56.926 16.736 57.374 16.48C57.8327 16.2133 58.1953 15.8347 58.462 15.344C58.7287 14.8427 58.862 14.2613 58.862 13.6ZM70.7945 13.28C70.7945 13.5573 70.7785 13.8507 70.7465 14.16H63.7385C63.7918 15.024 64.0852 15.7013 64.6185 16.192C65.1625 16.672 65.8185 16.912 66.5865 16.912C67.2158 16.912 67.7385 16.768 68.1545 16.48C68.5812 16.1813 68.8798 15.7867 69.0505 15.296H70.6185C70.3838 16.1387 69.9145 16.8267 69.2105 17.36C68.5065 17.8827 67.6318 18.144 66.5865 18.144C65.7545 18.144 65.0078 17.9573 64.3465 17.584C63.6958 17.2107 63.1838 16.6827 62.8105 16C62.4372 15.3067 62.2505 14.5067 62.2505 13.6C62.2505 12.6933 62.4318 11.8987 62.7945 11.216C63.1572 10.5333 63.6638 10.0107 64.3145 9.648C64.9758 9.27467 65.7332 9.088 66.5865 9.088C67.4185 9.088 68.1545 9.26933 68.7945 9.632C69.4345 9.99467 69.9252 10.496 70.2665 11.136C70.6185 11.7653 70.7945 12.48 70.7945 13.28ZM69.2905 12.976C69.2905 12.4213 69.1678 11.9467 68.9225 11.552C68.6772 11.1467 68.3412 10.8427 67.9145 10.64C67.4985 10.4267 67.0345 10.32 66.5225 10.32C65.7865 10.32 65.1572 10.5547 64.6345 11.024C64.1225 11.4933 63.8292 12.144 63.7545 12.976H69.2905ZM76.5404 18.144C75.719 18.144 74.9724 17.9573 74.3004 17.584C73.639 17.2107 73.1164 16.6827 72.7324 16C72.359 15.3067 72.1724 14.5067 72.1724 13.6C72.1724 12.704 72.3644 11.9147 72.7484 11.232C73.143 10.5387 73.6764 10.0107 74.3484 9.648C75.0204 9.27467 75.7724 9.088 76.6044 9.088C77.4364 9.088 78.1884 9.27467 78.8604 9.648C79.5324 10.0107 80.0604 10.5333 80.4444 11.216C80.839 11.8987 81.0364 12.6933 81.0364 13.6C81.0364 14.5067 80.8337 15.3067 80.4284 16C80.0337 16.6827 79.495 17.2107 78.8124 17.584C78.1297 17.9573 77.3724 18.144 76.5404 18.144ZM76.5404 16.864C77.063 16.864 77.5537 16.7413 78.0124 16.496C78.471 16.2507 78.839 15.8827 79.1164 15.392C79.4044 14.9013 79.5484 14.304 79.5484 13.6C79.5484 12.896 79.4097 12.2987 79.1324 11.808C78.855 11.3173 78.4924 10.9547 78.0444 10.72C77.5964 10.4747 77.111 10.352 76.5884 10.352C76.055 10.352 75.5644 10.4747 75.1164 10.72C74.679 10.9547 74.327 11.3173 74.0604 11.808C73.7937 12.2987 73.6604 12.896 73.6604 13.6C73.6604 14.3147 73.7884 14.9173 74.0444 15.408C74.311 15.8987 74.663 16.2667 75.1004 16.512C75.5377 16.7467 76.0177 16.864 76.5404 16.864Z" fill="black"/>
</svg>
